/* XPM */
static char * gns3icon_xpm[] = {
"32 32 522 2",
"  	c None",
". 	c #FAFAFB",
"+ 	c #F3F3F4",
"@ 	c #E4E3ED",
"# 	c #DDDDEC",
"$ 	c #F0EFF1",
"% 	c #F9F9FA",
"& 	c #F9F8FA",
"* 	c #DFDFEA",
"= 	c #CAC9EF",
"- 	c #DBDAF9",
"; 	c #E1E0F9",
"> 	c #D0D0F5",
", 	c #D2D2EC",
"' 	c #F6F6F6",
") 	c #FBFBFA",
"! 	c #DBDBE8",
"~ 	c #BABAF5",
"{ 	c #DEDEFD",
"] 	c #DBDBFD",
"^ 	c #D9D9FD",
"/ 	c #D6D6FD",
"( 	c #CDCDFB",
"_ 	c #C1C1EB",
": 	c #F7F6F7",
"< 	c #F0F0F1",
"[ 	c #8E8EEB",
"} 	c #BFBFFC",
"| 	c #C0C0FC",
"1 	c #BDBDFC",
"2 	c #BBBBFC",
"3 	c #B8B8FC",
"4 	c #B5B5FC",
"5 	c #9191F8",
"6 	c #D8D8EA",
"7 	c #F8F8F8",
"8 	c #F4F4F4",
"9 	c #F1F1F2",
"0 	c #F9F8F8",
"a 	c #FCFCFC",
"b 	c #CBCBE1",
"c 	c #6363F9",
"d 	c #A1A1FB",
"e 	c #A0A0FB",
"f 	c #9D9DFB",
"g 	c #9B9BFB",
"h 	c #9999FB",
"i 	c #9696FB",
"j 	c #7A7AFA",
"k 	c #9494EB",
"l 	c #F6F5F7",
"m 	c #F3F2F3",
"n 	c #DDC8C8",
"o 	c #D6AAAA",
"p 	c #D8ACAC",
"q 	c #D9ADAC",
"r 	c #D9BCBB",
"s 	c #EFEBEC",
"t 	c #FBFBFB",
"u 	c #F5F5F6",
"v 	c #9C9CE2",
"w 	c #5C5CFA",
"x 	c #7575FA",
"y 	c #8282FA",
"z 	c #7E7EFA",
"A 	c #7C7CFA",
"B 	c #7777FA",
"C 	c #6161FA",
"D 	c #6A6AF2",
"E 	c #EAEAEC",
"F 	c #EFEEEF",
"G 	c #D1A7A6",
"H 	c #E8C5C5",
"I 	c #F4E5E4",
"J 	c #F2E0E1",
"K 	c #F2DEDE",
"L 	c #EED1D1",
"M 	c #D7A7A7",
"N 	c #E8E0E0",
"O 	c #EDECED",
"P 	c #8080E5",
"Q 	c #6262F9",
"R 	c #6666FA",
"S 	c #6B6BFA",
"T 	c #6C6CFA",
"U 	c #6767FA",
"V 	c #5F5FFA",
"W 	c #5D5DF9",
"X 	c #D7D6E4",
"Y 	c #F4F3F4",
"Z 	c #C89493",
"` 	c #DFA6A6",
" .	c #E7BFBF",
"..	c #E6BBBB",
"+.	c #E5B9B9",
"@.	c #E5B5B5",
"#.	c #E3B2B2",
"$.	c #E2AEAE",
"%.	c #C67A7A",
"&.	c #DCDADA",
"*.	c #8382E6",
"=.	c #8888FA",
"-.	c #8383FA",
";.	c #7676FA",
">.	c #7474FA",
",.	c #7373FA",
"'.	c #6F6FFA",
").	c #6060FA",
"!.	c #C8C8DE",
"~.	c #FCFBFC",
"{.	c #FAF9FA",
"].	c #DBCECE",
"^.	c #B23534",
"/.	c #DA9999",
"(.	c #D99696",
"_.	c #D89393",
":.	c #D68F8F",
"<.	c #D68C8C",
"[.	c #D48989",
"}.	c #D38585",
"|.	c #C15656",
"1.	c #BA827C",
"2.	c #ADABE1",
"3.	c #BFBFFB",
"4.	c #B2B2FC",
"5.	c #7F7FFA",
"6.	c #7171FA",
"7.	c #C5C5DC",
"8.	c #FAF9FB",
"9.	c #F3F2F2",
"0.	c #B96C6C",
"a.	c #AC1B1B",
"b.	c #CB7171",
"c.	c #CA6E6E",
"d.	c #C96A6A",
"e.	c #C76767",
"f.	c #C76464",
"g.	c #C56060",
"h.	c #C45E5E",
"i.	c #B73B3A",
"j.	c #A8241F",
"k.	c #A499C5",
"l.	c #8B88EF",
"m.	c #B3B3FB",
"n.	c #7878FA",
"o.	c #6868F7",
"p.	c #D3D2DA",
"q.	c #FDFDFD",
"r.	c #E4E3E3",
"s.	c #A92424",
"t.	c #A40202",
"u.	c #B63D3D",
"v.	c #BB4545",
"w.	c #BA4242",
"x.	c #B93F3F",
"y.	c #B83B3B",
"z.	c #B73838",
"A.	c #B53434",
"B.	c #A81010",
"C.	c #A30101",
"D.	c #906A95",
"E.	c #B9B8F8",
"F.	c #7979FA",
"G.	c #8484FA",
"H.	c #A9A9FB",
"I.	c #8080E8",
"J.	c #E1E0E1",
"K.	c #F9F8F9",
"L.	c #D2C7C7",
"M.	c #A30505",
"N.	c #A30000",
"O.	c #A50607",
"P.	c #AC1A19",
"Q.	c #AB1817",
"R.	c #AB1413",
"S.	c #A91010",
"T.	c #A60909",
"U.	c #A36460",
"V.	c #8282ED",
"W.	c #8F8FFB",
"X.	c #BCBCF8",
"Y.	c #BAB9F6",
"Z.	c #A09FCB",
"`.	c #DFDFDE",
" +	c #E9E8E4",
".+	c #EDEDEC",
"++	c #F3F3F3",
"@+	c #F8F7F8",
"#+	c #C6A8A7",
"$+	c #A40000",
"%+	c #AC0000",
"&+	c #B50000",
"*+	c #B70000",
"=+	c #B60000",
"-+	c #B20000",
";+	c #A90000",
">+	c #A50000",
",+	c #A44F4D",
"'+	c #7E7EBE",
")+	c #8A8AFA",
"!+	c #B6B5F3",
"~+	c #9999C2",
"{+	c #D3D48F",
"]+	c #F0F1A9",
"^+	c #F8F9AD",
"/+	c #F4F5AC",
"(+	c #EBECAE",
"_+	c #ECEBD3",
":+	c #F6F6F7",
"<+	c #F6F6F5",
"[+	c #BE9999",
"}+	c #B00000",
"|+	c #BA0000",
"1+	c #BD0000",
"2+	c #BE0000",
"3+	c #B40000",
"4+	c #B34E4E",
"5+	c #B4B4B4",
"6+	c #7272D0",
"7+	c #6A6AFA",
"8+	c #7070FA",
"9+	c #7272F9",
"0+	c #7575F4",
"a+	c #A0A0C9",
"b+	c #DDDE94",
"c+	c #F8F9D1",
"d+	c #F8F8D6",
"e+	c #F7F8D3",
"f+	c #F7F8D0",
"g+	c #F7F8CB",
"h+	c #F1F2AC",
"i+	c #E8E8C0",
"j+	c #BD9E9E",
"k+	c #AD0000",
"l+	c #BB0000",
"m+	c #CB0000",
"n+	c #EC0000",
"o+	c #E60000",
"p+	c #CA5A56",
"q+	c #DEDED8",
"r+	c #B8B8B8",
"s+	c #7F7EB4",
"t+	c #6868D5",
"u+	c #6666D8",
"v+	c #6B6BB1",
"w+	c #D0D35A",
"x+	c #F2F4B5",
"y+	c #F1F3B5",
"z+	c #F1F2B4",
"A+	c #F0F2B2",
"B+	c #F0F1AE",
"C+	c #F0F2AB",
"D+	c #F2F4A7",
"E+	c #EEF176",
"F+	c #E8E8D0",
"G+	c #F7F7F7",
"H+	c #C1B3B3",
"I+	c #A30404",
"J+	c #D70000",
"K+	c #F80000",
"L+	c #F00000",
"M+	c #D97468",
"N+	c #F0F0DF",
"O+	c #EFEEE3",
"P+	c #D3D3CC",
"Q+	c #BABAB7",
"R+	c #ACACAC",
"S+	c #BEC05D",
"T+	c #EAEE60",
"U+	c #ECED95",
"V+	c #EAEC91",
"W+	c #EAEC90",
"X+	c #E9EB8E",
"Y+	c #E8EA8B",
"Z+	c #E8EA86",
"`+	c #EAEC85",
" @	c #EDF074",
".@	c #E4E755",
"+@	c #F0F0F0",
"@@	c #CDCDCC",
"#@	c #A31919",
"$@	c #BC0000",
"%@	c #D60000",
"&@	c #CA0402",
"*@	c #B64731",
"=@	c #E1BC9C",
"-@	c #FBFADF",
";@	c #FAFAE8",
">@	c #F4F4E7",
",@	c #DADACE",
"'@	c #DFE31E",
")@	c #E1E447",
"!@	c #E3E671",
"~@	c #E3E66E",
"{@	c #E1E46B",
"]@	c #E2E568",
"^@	c #E1E465",
"/@	c #E1E362",
"(@	c #E1E35F",
"_@	c #E2E652",
":@	c #E3E810",
"<@	c #E3E3C4",
"[@	c #FBFBFC",
"}@	c #DEDDDE",
"|@	c #A24F4F",
"1@	c #C90000",
"2@	c #ED0000",
"3@	c #EC1A18",
"4@	c #CCB9A1",
"5@	c #D3946B",
"6@	c #CA7D3F",
"7@	c #E3C48C",
"8@	c #F2EFCF",
"9@	c #D8D890",
"0@	c #DDE208",
"a@	c #D5D916",
"b@	c #DCDF4A",
"c@	c #DCDF48",
"d@	c #DBDF44",
"e@	c #DADE42",
"f@	c #DADE3F",
"g@	c #D9DD3C",
"h@	c #D8DC39",
"i@	c #D6DA1F",
"j@	c #DDE108",
"k@	c #DFE179",
"l@	c #F5F5F5",
"m@	c #EEEDEE",
"n@	c #AF9E9E",
"o@	c #AB0808",
"p@	c #BF0000",
"q@	c #C80000",
"r@	c #BA6B66",
"s@	c #E6E6D7",
"t@	c #FCFCE7",
"u@	c #F8F3D4",
"v@	c #E2C283",
"w@	c #C79D3E",
"x@	c #CBC22B",
"y@	c #D8DD05",
"z@	c #CFD400",
"A@	c #D2D613",
"B@	c #D4D922",
"C@	c #D5D920",
"D@	c #D5DA1C",
"E@	c #D4D91A",
"F@	c #D3D816",
"G@	c #D1D610",
"H@	c #CFD401",
"I@	c #DEE143",
"J@	c #ECECEC",
"K@	c #D2D2D1",
"L@	c #9C5858",
"M@	c #B10100",
"N@	c #B90000",
"O@	c #B80000",
"P@	c #AB2626",
"Q@	c #C6C3C1",
"R@	c #F4F4F0",
"S@	c #FDFDF6",
"T@	c #FDFDF0",
"U@	c #FCFCE8",
"V@	c #E7E7C8",
"W@	c #D2D331",
"X@	c #D4D803",
"Y@	c #CED300",
"Z@	c #D0D501",
"`@	c #DDE005",
" #	c #E9EC08",
".#	c #EFF108",
"+#	c #EDEF07",
"@#	c #E4E706",
"##	c #D6DA03",
"$#	c #D4D804",
"%#	c #DEE225",
"&#	c #E4E4E3",
"*#	c #EDEDEE",
"=#	c #BABABA",
"-#	c #974444",
";#	c #A90202",
">#	c #B10000",
",#	c #A32222",
"'#	c #AFA4A4",
")#	c #E6E6E6",
"!#	c #FEFEFC",
"~#	c #FEFEFB",
"{#	c #FCFCF6",
"]#	c #E0E0D6",
"^#	c #D4D733",
"/#	c #D2D702",
"(#	c #D2D701",
"_#	c #EBED07",
":#	c #F9FA0A",
"<#	c #FBFC0A",
"[#	c #F6F709",
"}#	c #E0E304",
"|#	c #D3D703",
"1#	c #DDE217",
"2#	c #DEDED9",
"3#	c #E6E5E5",
"4#	c #B9B8B8",
"5#	c #956F6F",
"6#	c #962F30",
"7#	c #9B1A1A",
"8#	c #992525",
"9#	c #975958",
"0#	c #B0ABAA",
"a#	c #DEDEDF",
"b#	c #DEDEDC",
"c#	c #D1D436",
"d#	c #D4D802",
"e#	c #E9EC06",
"f#	c #F8F909",
"g#	c #DFE206",
"h#	c #DCE019",
"i#	c #DCDCD9",
"j#	c #E9E9E9",
"k#	c #CECECE",
"l#	c #A8A8A9",
"m#	c #B2B1B1",
"n#	c #C7C7C9",
"o#	c #E4E4E4",
"p#	c #F8F7F7",
"q#	c #E1E1E0",
"r#	c #CBCE45",
"s#	c #DBDF04",
"t#	c #F8FA09",
"u#	c #EFF209",
"v#	c #D9DD27",
"w#	c #DDDDDC",
"x#	c #FBFAFB",
"y#	c #F5F4F5",
"z#	c #EEEEEE",
"A#	c #EDEBEB",
"B#	c #FAFAFA",
"C#	c #E6E6E5",
"D#	c #C4C564",
"E#	c #E4E807",
"F#	c #F6F80C",
"G#	c #D4D745",
"H#	c #E3E3E3",
"I#	c #EDEDED",
"J#	c #BCBC95",
"K#	c #E5E90A",
"L#	c #F6F80E",
"M#	c #CCCC77",
"N#	c #ECECED",
"O#	c #5E5E5E",
"P#	c #5C5B5B",
"Q#	c #525252",
"R#	c #6E6E6E",
"S#	c #7A7A7A",
"T#	c #C3C4C2",
"U#	c #D3D625",
"V#	c #F8FA0A",
"W#	c #EDF018",
"X#	c #C6C6B7",
"Y#	c #5D5D5D",
"Z#	c #777676",
"`#	c #696868",
" $	c #666666",
".$	c #545454",
"+$	c #747474",
"@$	c #606060",
"#$	c #8E8E8E",
"$$	c #888788",
"%$	c #DDDDDD",
"&$	c #B3B373",
"*$	c #EDF00A",
"=$	c #FAFB0A",
"-$	c #F7F90C",
";$	c #CACC5B",
">$	c #DADADA",
",$	c #565656",
"'$	c #949394",
")$	c #626262",
"!$	c #666566",
"~$	c #5B5B5B",
"{$	c #7B7A7B",
"]$	c #9F9F9F",
"^$	c #656565",
"/$	c #F0EFF0",
"($	c #BDBDBD",
"_$	c #BEC13D",
":$	c #EEF009",
"<$	c #F6F80B",
"[$	c #D8DA2B",
"}$	c #BDBDB6",
"|$	c #FCFBFD",
"1$	c #767676",
"2$	c #828282",
"3$	c #E2E2E2",
"4$	c #AEAEAA",
"5$	c #B9BC3D",
"6$	c #E0E509",
"7$	c #EBED08",
"8$	c #E8EC09",
"9$	c #CCCF2E",
"0$	c #B0B0A1",
"a$	c #E0E0E0",
"b$	c #F9F9F9",
"c$	c #DCDCDC",
"d$	c #AFAFAF",
"e$	c #A1A26E",
"f$	c #B6B838",
"g$	c #C1C427",
"h$	c #BBBE35",
"i$	c #A8AA64",
"j$	c #AEAEAB",
"k$	c #DCDBDA",
"l$	c #F5F4F6",
"m$	c #FDFDFE",
"n$	c #F6F5F6",
"o$	c #CAC9CA",
"p$	c #ABABAB",
"q$	c #B3B3B3",
"r$	c #C9C9C9",
"s$	c #E2E2E1",
"t$	c #FDFCFD",
"u$	c #F2F1F1",
"v$	c #E8E8E8",
"w$	c #F1F0F1",
"                              . + @ # $ %                       ",
"                            & * = - ; > , '                     ",
"                          ) ! ~ { ] ^ / ( _ :                   ",
"                          < [ } | 1 2 3 4 5 6                   ",
"          7 8 9 + 0 a   . b c d e f g h i j k l                 ",
"      a m n o p q r s t u v w x y z A j B C D E                 ",
"    a F G H I J K L M N O P Q C R S T U V w W X                 ",
"    Y Z `  ...+.@.#.$.%.&.*.=.-.;.>.>.,.'.).w !.~.              ",
"  {.].^./.(._.:.<.[.}.|.1.2.3.4.5.x >.>.x 6.V 7.8.              ",
"  9.0.a.b.c.d.e.f.g.h.i.j.k.l.m.5.>.>.n.y 5.o.p.~.              ",
"q.r.s.t.u.v.w.x.y.z.A.B.C.D.E.h F.x x G.H.e I.J.a               ",
"K.L.M.N.O.P.P.Q.R.S.T.N.N.U.V.A x >.x W.X.Y.Z.`. +.+++8.        ",
"@+#+N.N.$+%+&+*+=+-+;+>+$+,+'+'.>.>.>.)+!+~+{+]+^+/+(+_+:+~.    ",
"<+[+N.$+}+|+|+|+|+|+1+2+3+4+5+6+7+8+9+0+a+b+c+d+e+f+g+h+i+:+    ",
":+j+N.k+|+|+|+|+|+l+m+n+o+p+q+r+s+t+u+v+w+x+y+z+A+B+C+D+E+F+%   ",
"G+H+I+=+|+|+|+|+|+1+J+K+L+M+N+O+P+Q+R+S+T+U+V+W+X+Y+Z+`+ @.@+@  ",
"7 @@#@*+|+|+|+|+|+$@%@K+&@*@=@-@;@>@,@'@)@!@~@{@]@^@/@(@_@:@<@{.",
"[@}@|@&+|+|+|+|+|+l+1@2@3@4@5@6@7@8@9@0@a@b@c@d@e@f@g@h@i@j@k@l@",
"  m@n@o@|+|+|+|+|+|+p@q@r@s@t@u@v@w@x@y@z@A@B@C@D@E@F@G@H@y@I@J@",
"  @+K@L@M@N@|+|+|+|+O@P@Q@R@S@T@U@V@W@X@Y@Z@`@ #.#+#@###z@$#%#&#",
"  ~.*#=#-#;#>#=+3+>#,#'#)#~.!#~#{#]#^#/#(#_#:#<#<#<#<#[#}#|#1#2#",
"    . 3#4#5#6#7#8#9#0#a#@+      t b#c#d#e#<#<#<#<#<#<#<#f#g#h#i#",
"      {.j#k#5+l#m#n#o#p#        ~.q#r#s#t#<#<#<#<#<#<#<#<#u#v#w#",
"        x#y#z#j#A#++B#            C#D#E#<#<#<#<#<#<#<#<#<#F#G#H#",
"                                  I#J#K#<#<#<#<#<#<#<#<#<#L#M#N#",
"      O#    P#  Q#R#        S#    l@T#U#V#<#<#<#<#<#<#<#<#W#X#m ",
"      Y#Z#`#   $.$+$@$#$$$  .$    B#%$&$*$=$<#<#<#<#<#<#-$;$>$B#",
"      ,$'$)$  !$~$  {$    ]$^$      /$($_$:$:#<#<#<#=$<$[$}$F |$",
"        1$        2$      Z#        {.3$4$5$6$7$.#:$8$9$0$a$b$  ",
"                                      l c$d$e$f$g$h$i$j$k$l$    ",
"                                      m$n$&#o$5+p$q$r$s$l$t$    ",
"                                          b$u$j#)#v$w$%         "};
